# Blender v2.93.5 OBJ File: ''
# www.blender.org
mtllib Affiche.mtl
o poster9_Mesh.130
v 17.849724 6.773430 -26.602844
v 17.838835 6.330953 -26.566696
v 17.837738 5.888475 -26.511209
v 17.841845 5.446140 -26.488384
v 17.837656 5.004158 -26.554457
v 17.880999 4.569971 -26.615582
v 17.961866 4.140125 -26.602123
v 17.855749 6.773430 -26.959978
v 17.860693 6.330953 -26.930876
v 17.884850 5.888475 -26.882004
v 17.898237 5.445516 -26.861187
v 17.873905 5.003479 -26.918447
v 17.870834 4.574286 -26.969521
v 17.920403 4.140824 -26.960283
v 17.860716 6.755076 -27.316492
v 17.893927 6.320246 -27.303650
v 17.946808 5.888254 -27.259846
v 17.967434 5.446288 -27.233900
v 17.937674 5.026879 -27.273829
v 17.892355 4.617900 -27.323994
v 17.888853 4.184443 -27.320761
v 17.853903 6.711405 -27.672606
v 17.902477 6.285977 -27.654289
v 17.975634 5.876550 -27.605457
v 18.006769 5.447485 -27.577206
v 17.981939 5.047409 -27.606049
v 17.922197 4.662139 -27.662392
v 17.884615 4.238927 -27.674736
v 17.837559 6.667922 -28.024754
v 17.881298 6.249801 -27.982986
v 17.957512 5.858342 -27.931307
v 17.998240 5.446646 -27.904877
v 17.974651 5.043297 -27.934395
v 17.920809 4.659452 -27.993168
v 17.888561 4.242346 -28.028223
v 17.828604 6.649935 -28.376551
v 17.853514 6.234477 -28.325485
v 17.912603 5.849560 -28.268442
v 17.951004 5.444535 -28.241865
v 17.936155 5.024776 -28.272974
v 17.901257 4.619775 -28.339590
v 17.888094 4.191582 -28.383085
vt 0.134203 0.371531
vt 0.155156 0.369734
vt 0.155173 0.387010
vt 0.134229 0.388443
vt 0.176149 0.366997
vt 0.176191 0.384675
vt 0.197168 0.365890
vt 0.197237 0.383713
vt 0.218185 0.368948
vt 0.218284 0.386254
vt 0.238868 0.372023
vt 0.238626 0.388788
vt 0.259572 0.371291
vt 0.259278 0.388356
vt 0.155704 0.404759
vt 0.135069 0.405344
vt 0.176303 0.402766
vt 0.197216 0.401579
vt 0.217110 0.403325
vt 0.236590 0.405624
vt 0.257090 0.405487
vt 0.157300 0.421416
vt 0.137054 0.422246
vt 0.176920 0.419134
vt 0.197171 0.417831
vt 0.216034 0.419157
vt 0.234432 0.421737
vt 0.254522 0.422286
vt 0.158873 0.437058
vt 0.138986 0.438984
vt 0.177690 0.434546
vt 0.197206 0.433266
vt 0.216266 0.434667
vt 0.234571 0.437431
vt 0.254362 0.439056
vt 0.159461 0.453331
vt 0.139755 0.455655
vt 0.177914 0.450619
vt 0.197265 0.449350
vt 0.217247 0.450757
vt 0.236513 0.453846
vt 0.256788 0.455854
vn 0.9992 -0.0039 0.0386
vn 0.9975 0.0181 0.0681
vn 0.9960 0.0457 0.0773
vn 0.9988 0.0216 0.0447
vn 0.9927 0.0314 0.1169
vn 0.9900 0.0518 0.1316
vn 0.9913 -0.0102 0.1316
vn 0.9883 -0.0133 0.1517
vn 0.9962 -0.0094 0.0862
vn 0.9929 -0.0387 0.1123
vn 0.9955 0.0936 -0.0158
vn 0.9989 0.0433 0.0169
vn 0.9866 0.1472 -0.0705
vn 0.9938 0.1031 -0.0410
vn 0.9938 0.0975 0.0525
vn 0.9974 0.0687 0.0229
vn 0.9897 0.0901 0.1116
vn 0.9894 -0.0100 0.1449
vn 0.9876 -0.0913 0.1277
vn 0.9970 -0.0516 0.0573
vn 0.9999 0.0080 0.0092
vn 0.9911 0.1305 -0.0257
vn 0.9945 0.0988 -0.0352
vn 0.9930 0.1180 0.0100
vn 0.9991 0.0049 0.0432
vn 0.9934 -0.1042 0.0480
vn 0.9941 -0.1048 0.0289
vn 0.9977 -0.0651 0.0173
vn 0.9889 0.1267 -0.0770
vn 0.9941 0.0896 -0.0615
vn 0.9881 0.1242 -0.0909
vn 0.9965 0.0191 -0.0808
vn 0.9946 -0.0842 -0.0606
vn 0.9952 -0.0933 -0.0280
vn 0.9978 -0.0659 -0.0103
vn 0.9905 0.1117 -0.0807
vn 0.9955 0.0757 -0.0563
vn 0.9848 0.1227 -0.1230
vn 0.9911 0.0246 -0.1307
vn 0.9926 -0.0712 -0.0981
vn 0.9965 -0.0708 -0.0434
vn 0.9984 -0.0516 -0.0218
usemtl all.001
s 1
f 1/1/1 2/2/2 9/3/3 8/4/4
f 2/2/2 3/5/5 10/6/6 9/3/3
f 3/5/5 4/7/7 11/8/8 10/6/6
f 4/7/7 5/9/9 12/10/10 11/8/8
f 5/9/9 6/11/11 13/12/12 12/10/10
f 6/11/11 7/13/13 14/14/14 13/12/12
f 8/4/4 9/3/3 16/15/15 15/16/16
f 9/3/3 10/6/6 17/17/17 16/15/15
f 10/6/6 11/8/8 18/18/18 17/17/17
f 11/8/8 12/10/10 19/19/19 18/18/18
f 12/10/10 13/12/12 20/20/20 19/19/19
f 13/12/12 14/14/14 21/21/21 20/20/20
f 15/16/16 16/15/15 23/22/22 22/23/23
f 16/15/15 17/17/17 24/24/24 23/22/22
f 17/17/17 18/18/18 25/25/25 24/24/24
f 18/18/18 19/19/19 26/26/26 25/25/25
f 19/19/19 20/20/20 27/27/27 26/26/26
f 20/20/20 21/21/21 28/28/28 27/27/27
f 22/23/23 23/22/22 30/29/29 29/30/30
f 23/22/22 24/24/24 31/31/31 30/29/29
f 24/24/24 25/25/25 32/32/32 31/31/31
f 25/25/25 26/26/26 33/33/33 32/32/32
f 26/26/26 27/27/27 34/34/34 33/33/33
f 27/27/27 28/28/28 35/35/35 34/34/34
f 29/30/30 30/29/29 37/36/36 36/37/37
f 30/29/29 31/31/31 38/38/38 37/36/36
f 31/31/31 32/32/32 39/39/39 38/38/38
f 32/32/32 33/33/33 40/40/40 39/39/39
f 33/33/33 34/34/34 41/41/41 40/40/40
f 34/34/34 35/35/35 42/42/42 41/41/41
