# Blender v2.93.3 OBJ File: ''
# www.blender.org
mtllib Stylo.mtl
o pCube2_Mesh.032
v 20.386454 1.884832 -29.430683
v 21.465109 1.884832 -29.430683
v 20.386454 1.947232 -29.430683
v 21.465109 1.947232 -29.430683
v 20.386454 1.947232 -30.739237
v 21.465109 1.947232 -30.739237
v 20.386454 1.884832 -30.739237
v 21.465109 1.884832 -30.739237
vt 0.326220 0.272498
vt 0.399735 0.272577
vt 0.399730 0.276830
vt 0.326216 0.276751
vt 0.399635 0.366013
vt 0.326120 0.365934
vt 0.399630 0.370266
vt 0.326115 0.370187
vt 0.326316 0.183315
vt 0.399831 0.183394
vt 0.403983 0.276834
vt 0.403887 0.366018
vt 0.321867 0.365930
vt 0.321963 0.276746
vn 0.0000 0.0000 1.0000
vn 0.0000 1.0000 0.0000
vn 0.0000 0.0000 -1.0000
vn 0.0000 -1.0000 0.0000
vn 1.0000 0.0000 0.0000
vn -1.0000 0.0000 0.0000
usemtl lambert1.005
s 1
f 1/1/1 2/2/1 4/3/1 3/4/1
f 3/4/2 4/3/2 6/5/2 5/6/2
f 5/6/3 6/5/3 8/7/3 7/8/3
f 7/9/4 8/10/4 2/2/4 1/1/4
f 2/11/5 8/12/5 6/5/5 4/3/5
f 7/13/6 1/14/6 3/4/6 5/6/6
